<svg xmlns="http://www.w3.org/2000/svg" version="1.1" xmlns:xlink="http://www.w3.org/1999/xlink" xmlns:svgjs="http://svgjs.dev/svgjs" width="1000" height="623" viewBox="0 0 1000 623"><g transform="matrix(1,0,0,1,-0.6060606060606233,0.2522267206477409)"><svg viewBox="0 0 396 247" data-background-color="#ffffff" preserveAspectRatio="xMidYMid meet" height="623" width="1000" xmlns="http://www.w3.org/2000/svg" xmlns:xlink="http://www.w3.org/1999/xlink"><g id="tight-bounds" transform="matrix(1,0,0,1,0.2400000000000091,-0.09999999999999432)"><svg viewBox="0 0 395.52 247.2" height="247.2" width="395.52"><g><svg></svg></g><g><svg viewBox="0 0 395.52 247.2" height="247.2" width="395.52"><g transform="matrix(1,0,0,1,75.54432000000001,96.33089642302924)"><svg viewBox="0 0 244.43135999999996 54.5382071539415" height="54.5382071539415" width="244.43135999999996"><g><svg viewBox="0 0 244.43135999999996 54.5382071539415" height="54.5382071539415" width="244.43135999999996"><g><svg viewBox="0 0 408.0141193265408 91.03724890932118" height="54.5382071539415" width="244.43135999999996"><g><svg viewBox="0 0 244.43135999999996 91.03724890932118" height="91.03724890932118" width="244.43135999999996"><g id="textblocktransform"><svg viewBox="0 0 244.43135999999996 91.03724890932118" height="91.03724890932118" width="244.43135999999996" id="textblock"><g><svg viewBox="0 0 244.43135999999996 53.05147006278027" height="53.05147006278027" width="244.43135999999996"><g transform="matrix(1,0,0,1,0,0)"><svg width="244.43135999999996" viewBox="0.9 -35.8 167.23999999999998 36.3" height="53.05147006278027" data-palette-color="#001f3f"><path d="M28.3-31.9L24.7-25.1Q24.55-25.35 23.65-25.88 22.75-26.4 21.4-27 20.05-27.6 18.45-28.05 16.85-28.5 15.25-28.5L15.25-28.5Q13.15-28.5 12-27.78 10.85-27.05 10.85-25.55L10.85-25.55Q10.85-24.35 11.73-23.65 12.6-22.95 14.25-22.43 15.9-21.9 18.3-21.2L18.3-21.2Q21.7-20.3 24.2-19.03 26.7-17.75 28.03-15.75 29.35-13.75 29.35-10.45L29.35-10.45Q29.35-7.45 28.25-5.38 27.15-3.3 25.28-2.02 23.4-0.75 21-0.18 18.6 0.4 16.05 0.4L16.05 0.4Q13.45 0.4 10.73-0.13 8-0.65 5.5-1.63 3-2.6 0.9-4L0.9-4 4.5-11.15Q4.7-10.9 5.8-10.23 6.9-9.55 8.53-8.83 10.15-8.1 12.15-7.55 14.15-7 16.2-7L16.2-7Q18.4-7 19.48-7.7 20.55-8.4 20.55-9.65L20.55-9.65Q20.55-11 19.43-11.75 18.3-12.5 16.38-13.1 14.45-13.7 11.95-14.45L11.95-14.45Q8.7-15.45 6.58-16.7 4.45-17.95 3.43-19.75 2.4-21.55 2.4-24.25L2.4-24.25Q2.4-28 4.17-30.58 5.95-33.15 8.95-34.48 11.95-35.8 15.5-35.8L15.5-35.8Q18-35.8 20.33-35.2 22.65-34.6 24.68-33.7 26.7-32.8 28.3-31.9L28.3-31.9ZM46 0.5L46 0.5Q42.65 0.5 40.02-0.6 37.4-1.7 35.6-3.6 33.8-5.5 32.87-7.95 31.95-10.4 31.95-13.1L31.95-13.1Q31.95-15.85 32.87-18.3 33.8-20.75 35.6-22.65 37.4-24.55 40.02-25.65 42.65-26.75 46-26.75L46-26.75Q49.35-26.75 51.95-25.65 54.55-24.55 56.35-22.65 58.15-20.75 59.1-18.3 60.05-15.85 60.05-13.1L60.05-13.1Q60.05-10.4 59.1-7.95 58.15-5.5 56.35-3.6 54.55-1.7 51.95-0.6 49.35 0.5 46 0.5ZM40.15-13.1L40.15-13.1Q40.15-11.05 40.92-9.5 41.7-7.95 43-7.1 44.3-6.25 46-6.25L46-6.25Q47.65-6.25 48.97-7.13 50.3-8 51.05-9.55 51.8-11.1 51.8-13.1L51.8-13.1Q51.8-15.15 51.05-16.7 50.3-18.25 48.97-19.1 47.65-19.95 46-19.95L46-19.95Q44.3-19.95 43-19.1 41.7-18.25 40.92-16.7 40.15-15.15 40.15-13.1ZM63.75-9.45L63.75-9.45 63.75-26.25 71.75-26.25 71.75-11.2Q71.75-8.8 72.7-7.53 73.65-6.25 75.4-6.25L75.4-6.25Q76.5-6.25 77.5-6.63 78.5-7 79.45-7.85 80.4-8.7 81.15-10.05L81.15-10.05 81.15-26.25 89.15-26.25 89.15-8.9Q89.15-7.7 89.52-7.23 89.9-6.75 90.84-6.65L90.84-6.65 90.84 0Q89.75 0.2 88.92 0.3 88.09 0.4 87.45 0.4L87.45 0.4Q85.34 0.4 84.09-0.48 82.84-1.35 82.55-2.95L82.55-2.95 82.4-4.55Q80.59-1.95 77.92-0.73 75.25 0.5 71.95 0.5L71.95 0.5Q67.95 0.5 65.84-2.05 63.75-4.6 63.75-9.45ZM111.99-26.6L111.99-19.4Q109.09-19.4 106.74-18.48 104.39-17.55 103.34-15.75L103.34-15.75 103.34 0 95.34 0 95.34-26.25 102.69-26.25 102.69-20.95Q104.04-23.6 106.19-25.1 108.34-26.6 110.69-26.65L110.69-26.65Q111.24-26.65 111.52-26.65 111.79-26.65 111.99-26.6L111.99-26.6ZM113.49-7.85L113.49-7.85Q113.49-10.45 114.94-12.4 116.39-14.35 118.94-15.48 121.49-16.6 124.79-16.6L124.79-16.6Q126.39-16.6 127.94-16.32 129.49-16.05 130.64-15.55L130.64-15.55 130.64-16.7Q130.64-18.85 129.34-20 128.04-21.15 125.39-21.15L125.39-21.15Q123.19-21.15 121.27-20.4 119.34-19.65 117.19-18.25L117.19-18.25 114.79-23.35Q117.39-25.05 120.22-25.9 123.04-26.75 126.19-26.75L126.19-26.75Q132.09-26.75 135.37-23.93 138.64-21.1 138.64-15.75L138.64-15.75 138.64-8.9Q138.64-7.7 139.01-7.23 139.39-6.75 140.34-6.65L140.34-6.65 140.34 0Q139.34 0.2 138.47 0.3 137.59 0.4 136.94 0.4L136.94 0.4Q134.69 0.4 133.51-0.5 132.34-1.4 132.04-2.95L132.04-2.95 131.89-4.1Q130.14-1.85 127.72-0.68 125.29 0.5 122.64 0.5L122.64 0.5Q120.04 0.5 117.97-0.6 115.89-1.7 114.69-3.6 113.49-5.5 113.49-7.85ZM129.39-6.85L129.39-6.85Q129.94-7.3 130.29-7.85 130.64-8.4 130.64-8.9L130.64-8.9 130.64-11.25Q129.64-11.65 128.41-11.88 127.19-12.1 126.14-12.1L126.14-12.1Q123.94-12.1 122.49-11.13 121.04-10.15 121.04-8.55L121.04-8.55Q121.04-7.65 121.54-6.9 122.04-6.15 122.92-5.7 123.79-5.25 124.99-5.25L124.99-5.25Q126.19-5.25 127.39-5.7 128.59-6.15 129.39-6.85ZM158.89 0L150.19 0 140.89-26.25 149.14-26.25 154.89-7.2 160.64-26.25 168.14-26.25 158.89 0Z" opacity="1" transform="matrix(1,0,0,1,0,0)" fill="#001f3f" class="wordmark-text-0" data-fill-palette-color="primary" id="text-0"></path></svg></g></svg></g><g transform="matrix(1,0,0,1,0,65.57564890932119)"><svg viewBox="0 0 244.43135999999996 25.461599999999997" height="25.461599999999997" width="244.43135999999996"><g transform="matrix(1,0,0,1,0,0)"><svg width="244.43135999999996" viewBox="3.25 -36.55 446.44 46.51" height="25.461599999999997" data-palette-color="#aaaaaa"><path d="M10.25-13.99L10.25 0 3.25 0 3.25-35.01 27.76-35.01 27.76-28 10.25-28 10.25-21 20.75-21 20.75-13.99 10.25-13.99ZM35.5-14.4L35.5 0 28.83 0 28.83-26.15 30.44-26.15 32.64-23.05Q34.25-24.51 36.3-25.31 38.35-26.1 40.55-26.1L40.55-26.1 46.43-26.1 46.43-19.46 40.55-19.46Q39.5-19.46 38.57-19.07 37.64-18.68 36.96-17.99 36.28-17.31 35.89-16.38 35.5-15.45 35.5-14.4L35.5-14.4ZM74.31-13.31L74.31-13.31Q74.31-10.38 73.26-7.85 72.21-5.32 70.41-3.48 68.6-1.64 66.17-0.57 63.74 0.49 60.96 0.49L60.96 0.49Q58.2 0.49 55.77-0.57 53.34-1.64 51.52-3.48 49.7-5.32 48.65-7.85 47.6-10.38 47.6-13.31L47.6-13.31Q47.6-16.28 48.65-18.82 49.7-21.36 51.52-23.21 53.34-25.05 55.77-26.1 58.2-27.15 60.96-27.15L60.96-27.15Q63.74-27.15 66.17-26.16 68.6-25.17 70.41-23.35 72.21-21.53 73.26-18.98 74.31-16.43 74.31-13.31ZM67.6-13.31L67.6-13.31Q67.6-14.92 67.07-16.22 66.55-17.53 65.64-18.47 64.74-19.41 63.53-19.91 62.32-20.41 60.96-20.41L60.96-20.41Q59.59-20.41 58.38-19.91 57.17-19.41 56.28-18.47 55.39-17.53 54.88-16.22 54.37-14.92 54.37-13.31L54.37-13.31Q54.37-11.79 54.88-10.5 55.39-9.2 56.28-8.25 57.17-7.3 58.38-6.75 59.59-6.2 60.96-6.2L60.96-6.2Q62.32-6.2 63.53-6.71 64.74-7.23 65.64-8.15 66.55-9.08 67.07-10.4 67.6-11.72 67.6-13.31ZM84.66-14.94L84.66 0 78 0 78-26.15 79.61-26.15 81.8-23.61Q83.42-25.07 85.45-25.87 87.49-26.66 89.71-26.66L89.71-26.66Q92.11-26.66 94.23-25.74 96.35-24.83 97.94-23.23 99.53-21.63 100.44-19.49 101.36-17.36 101.36-14.94L101.36-14.94 101.36 0 94.69 0 94.69-14.94Q94.69-15.97 94.3-16.88 93.91-17.8 93.23-18.48 92.55-19.17 91.64-19.56 90.74-19.95 89.71-19.95L89.71-19.95Q88.66-19.95 87.74-19.56 86.81-19.17 86.13-18.48 85.44-17.8 85.05-16.88 84.66-15.97 84.66-14.94L84.66-14.94ZM123.92 0L118.86 0Q116.45 0 114.32-0.92 112.2-1.83 110.6-3.43 109-5.03 108.08-7.15 107.17-9.28 107.17-11.69L107.17-11.69 107.17-19.46 103.92-19.46 103.92-26.1 107.17-26.1 107.17-36.55 113.81-36.55 113.81-26.1 123.92-26.1 123.92-19.46 113.81-19.46 113.81-11.69Q113.81-10.64 114.2-9.73 114.59-8.81 115.27-8.13 115.96-7.45 116.88-7.04 117.81-6.64 118.86-6.64L118.86-6.64 123.92-6.64 123.92 0ZM150.55-21.46L138.05-6.4Q138.44-6.27 138.83-6.24 139.22-6.2 139.61-6.2L139.61-6.2Q140.59-6.2 141.49-6.47 142.39-6.74 143.19-7.24 143.98-7.74 144.6-8.46 145.23-9.18 145.62-10.06L145.62-10.06 150.5-5.15Q149.57-3.83 148.36-2.78 147.16-1.73 145.75-1 144.35-0.27 142.8 0.11 141.25 0.49 139.61 0.49L139.61 0.49Q136.85 0.49 134.42-0.54 131.99-1.56 130.18-3.39 128.36-5.22 127.31-7.75 126.26-10.28 126.26-13.31L126.26-13.31Q126.26-16.41 127.31-18.97 128.36-21.53 130.18-23.34 131.99-25.15 134.42-26.15 136.85-27.15 139.61-27.15L139.61-27.15Q141.25-27.15 142.81-26.76 144.37-26.37 145.78-25.63 147.18-24.9 148.4-23.84 149.62-22.78 150.55-21.46L150.55-21.46ZM133.7-9.84L141.47-20.14Q141-20.31 140.55-20.36 140.1-20.41 139.61-20.41L139.61-20.41Q138.24-20.41 137.04-19.91 135.83-19.41 134.94-18.48 134.05-17.55 133.53-16.25 133.02-14.94 133.02-13.31L133.02-13.31Q133.02-12.94 133.06-12.48 133.09-12.01 133.18-11.54 133.26-11.06 133.39-10.62 133.51-10.18 133.7-9.84L133.7-9.84ZM160.56-14.94L160.56 0 153.89 0 153.89-26.15 155.5-26.15 157.7-23.61Q159.31-25.07 161.35-25.87 163.39-26.66 165.61-26.66L165.61-26.66Q168-26.66 170.13-25.74 172.25-24.83 173.84-23.23 175.42-21.63 176.34-19.49 177.26-17.36 177.26-14.94L177.26-14.94 177.26 0 170.59 0 170.59-14.94Q170.59-15.97 170.2-16.88 169.81-17.8 169.13-18.48 168.44-19.17 167.54-19.56 166.64-19.95 165.61-19.95L165.61-19.95Q164.56-19.95 163.63-19.56 162.7-19.17 162.02-18.48 161.34-17.8 160.95-16.88 160.56-15.97 160.56-14.94L160.56-14.94ZM207.26-36.55L207.26 0 205.65 0 203.06-3.59Q202.11-2.73 201.04-1.99 199.98-1.25 198.81-0.7 197.64-0.15 196.41 0.17 195.17 0.49 193.9 0.49L193.9 0.49Q191.14 0.49 188.72-0.55 186.29-1.59 184.47-3.43 182.65-5.27 181.6-7.8 180.55-10.33 180.55-13.31L180.55-13.31Q180.55-16.26 181.6-18.8 182.65-21.34 184.47-23.19 186.29-25.05 188.72-26.1 191.14-27.15 193.9-27.15L193.9-27.15Q194.78-27.15 195.72-27 196.66-26.86 197.55-26.53 198.44-26.2 199.23-25.66 200.01-25.12 200.54-24.34L200.54-24.34 200.54-36.55 207.26-36.55ZM200.54-13.31L200.54-13.31Q200.54-14.67 200.02-15.95 199.49-17.24 198.59-18.23 197.69-19.21 196.48-19.81 195.27-20.41 193.9-20.41L193.9-20.41Q192.54-20.41 191.33-19.92 190.12-19.43 189.23-18.52 188.34-17.6 187.82-16.28 187.31-14.97 187.31-13.31L187.31-13.31Q187.31-11.87 187.82-10.57 188.34-9.28 189.23-8.3 190.12-7.32 191.33-6.76 192.54-6.2 193.9-6.2L193.9-6.2Q195.27-6.2 196.48-6.8 197.69-7.4 198.59-8.39 199.49-9.38 200.02-10.66 200.54-11.94 200.54-13.31ZM251.59-36.55L251.59 0 249.98 0 247.39-3.59Q246.44-2.73 245.38-1.99 244.31-1.25 243.14-0.7 241.97-0.15 240.74 0.17 239.5 0.49 238.23 0.49L238.23 0.49Q235.48 0.49 233.05-0.55 230.62-1.59 228.8-3.43 226.98-5.27 225.93-7.8 224.88-10.33 224.88-13.31L224.88-13.31Q224.88-16.26 225.93-18.8 226.98-21.34 228.8-23.19 230.62-25.05 233.05-26.1 235.48-27.15 238.23-27.15L238.23-27.15Q239.11-27.15 240.05-27 240.99-26.86 241.88-26.53 242.78-26.2 243.56-25.66 244.34-25.12 244.87-24.34L244.87-24.34 244.87-36.55 251.59-36.55ZM244.87-13.31L244.87-13.31Q244.87-14.67 244.35-15.95 243.83-17.24 242.92-18.23 242.02-19.21 240.81-19.81 239.6-20.41 238.23-20.41L238.23-20.41Q236.87-20.41 235.66-19.92 234.45-19.43 233.56-18.52 232.67-17.6 232.16-16.28 231.64-14.97 231.64-13.31L231.64-13.31Q231.64-11.87 232.16-10.57 232.67-9.28 233.56-8.3 234.45-7.32 235.66-6.76 236.87-6.2 238.23-6.2L238.23-6.2Q239.6-6.2 240.81-6.8 242.02-7.4 242.92-8.39 243.83-9.38 244.35-10.66 244.87-11.94 244.87-13.31ZM279.56-21.46L267.06-6.4Q267.46-6.27 267.85-6.24 268.24-6.2 268.63-6.2L268.63-6.2Q269.6-6.2 270.51-6.47 271.41-6.74 272.2-7.24 273-7.74 273.62-8.46 274.24-9.18 274.63-10.06L274.63-10.06 279.52-5.15Q278.59-3.83 277.38-2.78 276.17-1.73 274.77-1 273.36-0.27 271.81 0.11 270.26 0.49 268.63 0.49L268.63 0.49Q265.87 0.49 263.44-0.54 261.01-1.56 259.19-3.39 257.37-5.22 256.32-7.75 255.27-10.28 255.27-13.31L255.27-13.31Q255.27-16.41 256.32-18.97 257.37-21.53 259.19-23.34 261.01-25.15 263.44-26.15 265.87-27.15 268.63-27.15L268.63-27.15Q270.26-27.15 271.83-26.76 273.39-26.37 274.79-25.63 276.2-24.9 277.42-23.84 278.64-22.78 279.56-21.46L279.56-21.46ZM262.72-9.84L270.48-20.14Q270.02-20.31 269.57-20.36 269.12-20.41 268.63-20.41L268.63-20.41Q267.26-20.41 266.05-19.91 264.84-19.41 263.95-18.48 263.06-17.55 262.55-16.25 262.04-14.94 262.04-13.31L262.04-13.31Q262.04-12.94 262.07-12.48 262.11-12.01 262.19-11.54 262.28-11.06 262.4-10.62 262.52-10.18 262.72-9.84L262.72-9.84ZM296.68 0L289.99 0 280.03-26.15 287.62-26.15 293.33-9.84 299.02-26.15 306.64-26.15 296.68 0ZM331.32-21.46L318.82-6.4Q319.21-6.27 319.6-6.24 319.99-6.2 320.38-6.2L320.38-6.2Q321.36-6.2 322.26-6.47 323.16-6.74 323.96-7.24 324.75-7.74 325.37-8.46 326-9.18 326.39-10.06L326.39-10.06 331.27-5.15Q330.34-3.83 329.13-2.78 327.92-1.73 326.52-1 325.12-0.27 323.57 0.11 322.02 0.49 320.38 0.49L320.38 0.49Q317.62 0.49 315.19-0.54 312.76-1.56 310.94-3.39 309.13-5.22 308.08-7.75 307.03-10.28 307.03-13.31L307.03-13.31Q307.03-16.41 308.08-18.97 309.13-21.53 310.94-23.34 312.76-25.15 315.19-26.15 317.62-27.15 320.38-27.15L320.38-27.15Q322.02-27.15 323.58-26.76 325.14-26.37 326.54-25.63 327.95-24.9 329.17-23.84 330.39-22.78 331.32-21.46L331.32-21.46ZM314.47-9.84L322.24-20.14Q321.77-20.31 321.32-20.36 320.87-20.41 320.38-20.41L320.38-20.41Q319.01-20.41 317.8-19.91 316.6-19.41 315.7-18.48 314.81-17.55 314.3-16.25 313.79-14.94 313.79-13.31L313.79-13.31Q313.79-12.94 313.82-12.48 313.86-12.01 313.95-11.54 314.03-11.06 314.15-10.62 314.28-10.18 314.47-9.84L314.47-9.84ZM341.37-36.55L341.37 0 334.66 0 334.66-36.55 341.37-36.55ZM371.72-13.31L371.72-13.31Q371.72-10.38 370.67-7.85 369.62-5.32 367.81-3.48 366.01-1.64 363.58-0.57 361.15 0.49 358.36 0.49L358.36 0.49Q355.6 0.49 353.18-0.57 350.75-1.64 348.93-3.48 347.11-5.32 346.06-7.85 345.01-10.38 345.01-13.31L345.01-13.31Q345.01-16.28 346.06-18.82 347.11-21.36 348.93-23.21 350.75-25.05 353.18-26.1 355.6-27.15 358.36-27.15L358.36-27.15Q361.15-27.15 363.58-26.16 366.01-25.17 367.81-23.35 369.62-21.53 370.67-18.98 371.72-16.43 371.72-13.31ZM365-13.31L365-13.31Q365-14.92 364.48-16.22 363.95-17.53 363.05-18.47 362.15-19.41 360.94-19.91 359.73-20.41 358.36-20.41L358.36-20.41Q357-20.41 355.79-19.91 354.58-19.41 353.69-18.47 352.8-17.53 352.28-16.22 351.77-14.92 351.77-13.31L351.77-13.31Q351.77-11.79 352.28-10.5 352.8-9.2 353.69-8.25 354.58-7.3 355.79-6.75 357-6.2 358.36-6.2L358.36-6.2Q359.73-6.2 360.94-6.71 362.15-7.23 363.05-8.15 363.95-9.08 364.48-10.4 365-11.72 365-13.31ZM382.12-1.76L382.12 9.96 375.4 9.96 375.4-26.15 377.01-26.15 379.67-23Q380.58-23.85 381.65-24.61 382.73-25.37 383.89-25.92 385.05-26.46 386.29-26.78 387.54-27.1 388.81-27.1L388.81-27.1Q391.56-27.1 393.99-26.11 396.42-25.12 398.24-23.32 400.06-21.51 401.11-18.96 402.16-16.41 402.16-13.31L402.16-13.31Q402.16-10.08 401.11-7.51 400.06-4.93 398.24-3.14 396.42-1.34 393.99-0.39 391.56 0.56 388.81 0.56L388.81 0.56Q387.93 0.56 387.06 0.37 386.19 0.17 385.35-0.16 384.51-0.49 383.69-0.9 382.87-1.32 382.12-1.76L382.12-1.76ZM395.47-13.31L395.47-13.31Q395.47-14.97 394.95-16.28 394.42-17.6 393.52-18.52 392.61-19.43 391.39-19.92 390.17-20.41 388.81-20.41L388.81-20.41Q387.44-20.41 386.23-19.92 385.02-19.43 384.12-18.52 383.21-17.6 382.69-16.28 382.16-14.97 382.16-13.31L382.16-13.31Q382.16-11.72 382.69-10.4 383.21-9.08 384.12-8.15 385.02-7.23 386.23-6.71 387.44-6.2 388.81-6.2L388.81-6.2Q390.17-6.2 391.39-6.71 392.61-7.23 393.52-8.15 394.42-9.08 394.95-10.4 395.47-11.72 395.47-13.31ZM428.74-21.46L416.24-6.4Q416.63-6.27 417.03-6.24 417.42-6.2 417.81-6.2L417.81-6.2Q418.78-6.2 419.69-6.47 420.59-6.74 421.38-7.24 422.18-7.74 422.8-8.46 423.42-9.18 423.81-10.06L423.81-10.06 428.7-5.15Q427.77-3.83 426.56-2.78 425.35-1.73 423.95-1 422.54-0.27 420.99 0.11 419.44 0.49 417.81 0.49L417.81 0.49Q415.05 0.49 412.62-0.54 410.19-1.56 408.37-3.39 406.55-5.22 405.5-7.75 404.45-10.28 404.45-13.31L404.45-13.31Q404.45-16.41 405.5-18.97 406.55-21.53 408.37-23.34 410.19-25.15 412.62-26.15 415.05-27.15 417.81-27.15L417.81-27.15Q419.44-27.15 421-26.76 422.57-26.37 423.97-25.63 425.38-24.9 426.6-23.84 427.82-22.78 428.74-21.46L428.74-21.46ZM411.9-9.84L419.66-20.14Q419.2-20.31 418.75-20.36 418.29-20.41 417.81-20.41L417.81-20.41Q416.44-20.41 415.23-19.91 414.02-19.41 413.13-18.48 412.24-17.55 411.73-16.25 411.21-14.94 411.21-13.31L411.21-13.31Q411.21-12.94 411.25-12.48 411.29-12.01 411.37-11.54 411.46-11.06 411.58-10.62 411.7-10.18 411.9-9.84L411.9-9.84ZM438.75-14.4L438.75 0 432.09 0 432.09-26.15 433.7-26.15 435.9-23.05Q437.51-24.51 439.56-25.31 441.61-26.1 443.81-26.1L443.81-26.1 449.69-26.1 449.69-19.46 443.81-19.46Q442.76-19.46 441.83-19.07 440.9-18.68 440.22-17.99 439.53-17.31 439.14-16.38 438.75-15.45 438.75-14.4L438.75-14.4Z" opacity="1" transform="matrix(1,0,0,1,0,0)" fill="#aaaaaa" class="slogan-text-1" data-fill-palette-color="secondary" id="text-1"></path></svg></g></svg></g></svg></g></svg></g><g transform="matrix(1,0,0,1,256.9555388465409,2.770890560889171)"><svg viewBox="0 0 151.05858047999996 85.49546778754284" height="85.49546778754284" width="151.05858047999996"><g><svg xmlns="http://www.w3.org/2000/svg" xmlns:xlink="http://www.w3.org/1999/xlink" version="1.1" x="0" y="0" viewBox="11.822 31.85491095548784 77.02774999999998 43.59582552640113" enable-background="new 0 0 100 100" xml:space="preserve" height="85.49546778754284" width="151.05858047999996" class="icon-icon-0" data-fill-palette-color="accent" id="icon-0"><g fill="#ff4136" data-fill-palette-color="accent"><path d="M17.399 59.888l11.733 11.734c0.621 0.621 1.628 0.621 2.249 0l3.985-3.986c0.621-0.62 0.621-1.627 0-2.248l-10.609-10.61c-0.622-0.62-0.622-1.628 0-2.249l10.609-10.609c0.621-0.622 0.621-1.628 0-2.25l-3.985-3.986c-0.622-0.621-1.628-0.621-2.249 0L17.399 47.418l-5.112 5.11c-0.62 0.621-0.62 1.629 0 2.249L17.399 59.888z" fill="#ff4136" data-fill-palette-color="accent"></path><path d="M88.384 54.777c0.621-0.62 0.621-1.628 0-2.249l-5.11-5.11L71.54 35.684c-0.621-0.621-1.627-0.621-2.249 0l-3.985 3.986c-0.621 0.621-0.621 1.628 0 2.25l10.608 10.609c0.622 0.621 0.622 1.629 0 2.249l-10.608 10.61c-0.621 0.621-0.621 1.628 0 2.248l3.985 3.986c0.621 0.621 1.628 0.621 2.249 0l11.733-11.734L88.384 54.777z" fill="#ff4136" data-fill-palette-color="accent"></path></g><path d="M43.502 75.334l-6.684-3.403c-0.492-0.25-0.703-0.823-0.469-1.282l19.506-38.304c0.234-0.457 0.822-0.624 1.314-0.374l6.683 3.403c0.493 0.251 0.703 0.825 0.47 1.282L44.814 74.96C44.581 75.418 43.995 75.585 43.502 75.334z" fill="#ff4136" data-fill-palette-color="accent"></path></svg></g></svg></g></svg></g></svg></g></svg></g><g><path d="M245.816 0c68.262 0 123.6 55.338 123.6 123.6 0 68.262-55.338 123.6-123.6 123.6-57.549 0-105.912-39.331-119.675-92.579l1.481 0c13.728 52.448 61.442 91.146 118.194 91.146 67.471 0 122.167-54.696 122.167-122.167 0-67.471-54.696-122.167-122.167-122.167-56.752 0-104.466 38.698-118.194 91.146h-1.481c13.763-53.248 62.126-92.579 119.675-92.579z" fill="#aaaaaa" stroke="transparent" data-fill-palette-color="tertiary"></path></g></svg></g><defs></defs></svg><rect width="395.52" height="247.2" fill="none" stroke="none" visibility="hidden"></rect></g></svg></g></svg>